<svg xmlns="http://www.w3.org/2000/svg" style="isolation:isolate" viewBox="10 13 50 50" width="50" height="50"><path d="M56.097 38c4.479-5.36 4.633-9.631 2.806-12.5-1.218-1.906-4.524-4.954-12.983-4.09C43.522 16.407 39.871 13 35 13c-4.871 0-8.522 3.407-10.92 8.41-8.452-.857-11.767 2.184-12.983 4.09-1.828 2.871-1.674 7.138 2.806 12.5-4.479 5.36-4.633 9.631-2.806 12.5 3.26 5.111 11.348 4.256 12.983 4.09C26.476 59.592 30.129 63 35 63c4.871 0 8.524-3.408 10.92-8.41 1.634.166 9.722 1.021 12.983-4.09 1.828-2.871 1.674-7.138-2.806-12.5zm-39.024 9.375c-.449-.704-.021-2.422 1.669-4.716a47.011 47.011 0 0 0 2.441 1.873c.191 1.339.446 2.645.754 3.914-2.741.087-4.452-.426-4.864-1.071zm4.11-15.906a47.88 47.88 0 0 0-2.441 1.873c-1.689-2.295-2.117-4.013-1.669-4.717.381-.6 1.83-1.12 4.233-1.12.191 0 .432.029.635.036a40.977 40.977 0 0 0-.758 3.928zM35 19.25c1.057 0 2.478 1.32 3.779 3.639A52.883 52.883 0 0 0 35 24.145a52.883 52.883 0 0 0-3.779-1.256C32.522 20.57 33.943 19.25 35 19.25zm0 37.5c-1.057 0-2.478-1.32-3.779-3.639A52.883 52.883 0 0 0 35 51.855c1.275.475 2.53.895 3.779 1.256C37.478 55.43 36.057 56.75 35 56.75zm6.976-15.364A49.638 49.638 0 0 1 35 45.046a49.693 49.693 0 0 1-6.976-3.66c-.222-2.714-.222-4.057 0-6.771A49.85 49.85 0 0 1 35 30.955c1.829.798 4.002 1.801 6.976 3.66.22 2.713.222 4.056 0 6.771zm10.951 5.989c-.41.646-2.121 1.154-4.864 1.069.308-1.269.563-2.575.754-3.912a47.88 47.88 0 0 0 2.441-1.873c1.689 2.294 2.117 4.012 1.669 4.716zm-1.669-14.034a47.011 47.011 0 0 0-2.441-1.873 40.977 40.977 0 0 0-.758-3.928c.203-.007.443-.036.635-.036 2.402 0 3.852.521 4.233 1.12.448.705.02 2.423-1.669 4.717zM35 34.875c-1.972 0-3.571 1.399-3.571 3.125s1.599 3.125 3.571 3.125c1.972 0 3.571-1.399 3.571-3.125S36.972 34.875 35 34.875z"/></svg>