<svg xmlns="http://www.w3.org/2000/svg" style="isolation:isolate" viewBox="158 14 50 50" width="50" height="50"><path d="M158.337 35.172c0 2.824 1.947 6.696 4.988 7.645v.112c-2.26.926-2.885 5.647.12 7.343v.112c-3.282 1.004-5.445 2.935-5.445 6.272 0 5.748 5.865 7.344 10.998 7.344 6.25 0 10.901-2.087 10.901-8.482 0-7.868-12.139-4.967-12.139-9.241 0-1.507.865-2.087 2.367-2.377 4.988-.86 8.113-4.465 8.113-9.175 0-.814-.18-1.584-.48-2.343a24.757 24.757 0 0 0 2.367-.614v-5.636c-2.067.759-4.29 1.317-6.55 1.317-6.466-3.46-15.24.145-15.24 7.723zm10.54 18.281c2.044 0 4.952.335 4.952 2.79 0 2.433-2.343 2.936-4.531 2.936-2.079 0-5.204-.302-5.204-2.813.012-2.489 2.656-2.913 4.783-2.913zM168.493 39c-2.644 0-3.762-1.451-3.762-3.772 0-5.503 7.332-5.447 7.332-.056 0 2.266-.962 3.828-3.57 3.828zM208 44.525v5.468c-1.599.815-3.666 1.094-5.469 1.094-6.43 0-7.187-4.71-7.187-9.565v-9.788h.06v-.111c-.841 0-.878-.179-2.885.111v-5.301h2.885c0-2.489.036-3.46-.18-4.598h6.814c-.24 1.54-.18 3.069-.18 4.598h6.13v5.301s-2.32-.111-6.13-.111V41.79c0 1.652.397 3.661 2.62 3.661 1.178 0 2.56-.313 3.522-.926zm-17.548-26.429c0 2.087-1.743 4.04-4.063 4.04-2.379 0-4.146-1.919-4.146-4.04A4.117 4.117 0 0 1 186.389 14c2.38 0 4.063 2.009 4.063 4.096zm-.745 8.315c-.217 1.629-.193 22.299 0 24.308h-6.671c.192-2.02.216-22.656 0-24.308h6.671z"/></svg>