<svg xmlns="http://www.w3.org/2000/svg" style="isolation:isolate" viewBox="224 10 50 50" width="50" height="50"><path d="M240.724 50.26c0 .207-.232.372-.524.372-.333.031-.565-.134-.565-.372 0-.207.232-.372.524-.372.303-.031.565.134.565.372zm-3.135-.465c-.071.206.131.444.433.506.262.104.565 0 .625-.206.061-.207-.131-.445-.433-.538-.262-.072-.555.031-.625.238zm4.455-.176c-.292.072-.494.269-.463.507.03.206.292.341.594.268.293-.072.494-.268.464-.475-.03-.197-.302-.331-.595-.3zM248.677 10C234.696 10 224 20.887 224 35.227c0 11.466 7.036 21.278 17.087 24.731 1.29.238 1.744-.579 1.744-1.251 0-.641-.031-4.177-.031-6.348 0 0-7.056 1.551-8.538-3.081 0 0-1.149-3.009-2.802-3.784 0 0-2.309-1.624.161-1.593 0 0 2.51.207 3.891 2.668 2.208 3.991 5.907 2.843 7.349 2.161.232-1.654.887-2.802 1.613-3.484-5.635-.641-11.321-1.479-11.321-11.425 0-2.843.766-4.27 2.379-6.09-.262-.672-1.119-3.443.262-7.02 2.107-.672 6.956 2.792 6.956 2.792a23.127 23.127 0 0 1 6.331-.879c2.147 0 4.314.3 6.33.879 0 0 4.849-3.474 6.956-2.792 1.381 3.588.524 6.348.262 7.02 1.613 1.83 2.601 3.257 2.601 6.09 0 9.977-5.938 10.773-11.573 11.425.928.816 1.714 2.367 1.714 4.797 0 3.484-.03 7.795-.03 8.643 0 .672.463 1.489 1.744 1.251C267.165 56.505 274 46.693 274 35.227 274 20.887 262.659 10 248.677 10zm-14.879 35.659c-.131.103-.1.341.071.538.161.165.393.238.524.103.131-.103.101-.341-.07-.538-.162-.165-.394-.237-.525-.103zm-1.088-.837c-.071.134.03.299.232.403.161.103.362.072.433-.073.071-.134-.03-.299-.232-.403-.201-.062-.363-.031-.433.073zm3.266 3.68c-.161.135-.101.445.131.641.232.238.524.269.655.104.131-.135.071-.445-.131-.641-.222-.238-.524-.269-.655-.104zm-1.149-1.52c-.162.104-.162.373 0 .61.161.238.433.342.564.238.161-.134.161-.403 0-.641-.141-.238-.403-.341-.564-.207z"/></svg>