<svg xmlns="http://www.w3.org/2000/svg" style="isolation:isolate" viewBox="349 12 50 50" width="50" height="50"><path d="M349 12v50h50V12h-50zm27.21 38.996c0 4.866-2.857 7.087-7.02 7.087-3.761 0-5.938-1.942-7.054-4.297l3.828-2.311c.737 1.306 1.407 2.411 3.025 2.411 1.54 0 2.522-.603 2.522-2.957V34.958h4.699v16.038zm11.116 7.087c-4.364 0-7.188-2.076-8.56-4.8l3.828-2.209c1.004 1.64 2.321 2.857 4.631 2.857 1.942 0 3.192-.971 3.192-2.322 0-1.607-1.272-2.176-3.426-3.125l-1.172-.502c-3.393-1.44-5.636-3.259-5.636-7.087 0-3.527 2.69-6.205 6.875-6.205 2.991 0 5.134 1.038 6.674 3.761l-3.661 2.344c-.803-1.44-1.674-2.009-3.024-2.009-1.373 0-2.243.87-2.243 2.009 0 1.406.87 1.975 2.89 2.857l1.172.502c3.996 1.708 6.239 3.46 6.239 7.388 0 4.219-3.326 6.541-7.779 6.541z"/></svg>