<svg xmlns="http://www.w3.org/2000/svg" style="isolation:isolate" viewBox="11 77 50 50" width="50" height="50"><path d="M35.711 127c-.164 0-.328-.077-.477-.204l-1.5-1.454c-.226-.204-.117-.281-.039-.319.297-.166.36-.204.68-.51.031-.026.078-.013.109.012l1.157 1.123a.1.1 0 0 0 .14 0l4.516-4.26a.299.299 0 0 0 .07-.205v-8.508c0-.089-.023-.165-.07-.204l-4.516-4.247c-.039-.038-.093-.038-.14 0l-4.516 4.247c-.047.039-.07.128-.07.204v8.508c0 .077.031.154.07.192l1.234 1.161c.672.548 1.086-.102 1.086-.74v-8.406c0-.115.055-.217.133-.217h.57c.071 0 .133.089.133.217v8.406c0 1.467-.484 2.296-1.336 2.296-.258 0-.468 0-1.039-.459l-1.187-1.11c-.289-.281-.477-.791-.477-1.34v-8.508c0-.548.18-1.071.477-1.339l4.515-4.26c.289-.268.664-.268.946 0l4.515 4.26c.289.281.477.791.477 1.339v8.508c0 .549-.18 1.072-.477 1.34l-4.515 4.26a.647.647 0 0 1-.469.217zm3.648-8.393c0-1.595-.656-2.016-2.046-2.322-1.407-.306-1.547-.459-1.547-.995 0-.446.117-1.033 1.156-1.033.93 0 1.273.332 1.414 1.352.016.102.062.166.125.166h.586c.039 0 .07-.025.094-.064a.295.295 0 0 0 .031-.166c-.094-1.76-.805-2.576-2.25-2.576-1.289 0-2.055.893-2.055 2.372 0 1.62.766 2.054 2 2.258 1.477.242 1.594.587 1.594 1.059 0 .829-.406 1.173-1.359 1.173-1.196 0-1.461-.484-1.547-1.454-.008-.102-.063-.178-.133-.178h-.586c-.07 0-.133.089-.133.216 0 1.238.414 2.717 2.391 2.717 1.445 0 2.265-.918 2.265-2.525zm4.258-6.391c0 .778-.39 1.416-.867 1.416s-.867-.638-.867-1.416c0-.803.406-1.416.867-1.416.469-.012.867.613.867 1.416zm-.14 0c0-.663-.329-1.186-.735-1.186-.398 0-.726.523-.726 1.186 0 .664.328 1.199.726 1.199.406-.012.735-.548.735-1.199zm-.352.791h-.203a27.644 27.644 0 0 1-.039-.497c-.016-.09-.031-.141-.102-.141h-.172v.638h-.187v-1.594h.336c.117 0 .344 0 .344.421 0 .293-.118.357-.188.395.133.013.141.153.164.357.008.128.024.345.047.421zm-.219-1.122c0-.217-.093-.217-.14-.217h-.157v.446h.149c.125 0 .148-.14.148-.229zM21.727 93.708c0-.344-.11-.651-.289-.816l-4.79-4.503a.459.459 0 0 0-.265-.128h-.047c-.094 0-.18.051-.266.128l-4.781 4.503c-.18.165-.289.484-.289.816l.008 12.118c0 .166.055.319.14.408.086.089.196.089.29 0l2.843-2.666c.18-.179.289-.485.289-.816v-5.664c0-.331.11-.65.289-.816l1.211-1.135a.405.405 0 0 1 .289-.128.39.39 0 0 1 .289.128l1.211 1.135c.18.166.289.485.289.816v5.664c0 .331.11.65.29.816l2.843 2.666c.086.089.203.089.289 0 .086-.077.141-.242.141-.408l.016-12.118zM47.914 80.48v22.501c0 .332-.109.651-.289.817l-4.789 4.515c-.18.166-.398.166-.578 0l-4.789-4.515c-.18-.166-.289-.485-.289-.817V93.95c0-.331.109-.65.289-.816l4.789-4.516c.18-.165.398-.165.578 0l1.195 1.123c.133.128.305-.038.305-.281V77.47c0-.357.234-.587.43-.408l2.851 2.602c.18.153.297.472.297.816zM44.32 96.922a.298.298 0 0 0-.07-.204l-1.641-1.556a.11.11 0 0 0-.148 0l-1.641 1.556c-.047.039-.07.115-.07.204v3.1c0 .089.031.166.07.204l1.641 1.543c.047.039.102.039.141 0l1.64-1.543c.047-.038.071-.115.071-.204v-3.1h.007zm16.391-.089c.18-.166.289-.485.289-.816v-2.181c0-.332-.109-.651-.289-.817l-4.758-4.515c-.18-.166-.398-.166-.578 0l-4.789 4.515c-.18.166-.289.485-.289.817v9.03c0 .345.109.651.289.817l4.758 4.426c.172.166.39.166.57 0l2.875-2.615c.195-.178.195-.638 0-.816l-4.82-4.516a.567.567 0 0 1-.149-.408v-2.832c0-.165.055-.319.149-.408l1.5-1.416c.086-.089.203-.089.289 0l1.5 1.416a.605.605 0 0 1 .148.408v2.22c0 .357.242.587.438.408l2.867-2.717zm-6.039.447a.238.238 0 0 0-.055.153v1.734c0 .064.024.128.055.153l.922.868c.031.038.078.038.109 0l.922-.868a.238.238 0 0 0 .055-.153v-1.734c0-.064-.024-.128-.055-.153l-.922-.868c-.031-.038-.078-.038-.109 0l-.922.868zm-19.859 5.548v-8.98c0-.331-.125-.65-.305-.816l-4.774-4.49c-.164-.153-.39-.179-.578 0l-4.773 4.49c-.18.166-.305.472-.305.816v8.98c0 .357.149.663.313.817l4.781 4.49c.187.178.406.165.578 0l4.766-4.49c.14-.128.242-.345.281-.6.008-.064.016-.14.016-.217zm-5.805-15.932l-.063.064h.086l-.023-.064zm5.953 16.608l-.031-.089v.115l.031-.026z"/></svg>