<svg xmlns="http://www.w3.org/2000/svg" style="isolation:isolate" viewBox="172 87 50 50" width="50" height="50"><path d="M215.044 115.739c-1.749.01-3.264.573-4.529 1.406-.461-1.239-.938-2.323-1.016-3.135-.094-.948-.195-1.51-.086-2.635.11-1.125.602-2.719.594-2.833-.008-.115-.11-.688-1.117-.698-1.008-.011-1.874.26-1.976.614a16.088 16.088 0 0 0-.414 1.99c-.18 1.218-2.015 5.572-3.054 7.843-.343-.886-.632-1.667-.695-2.292-.094-.948-.195-1.51-.086-2.635.11-1.125.602-2.718.594-2.833-.008-.115-.11-.687-1.117-.698-1.008-.01-1.875.261-1.976.615-.102.354-.211 1.187-.414 1.989-.203.802-2.648 8.051-3.288 9.937a60.745 60.745 0 0 1-.812 2.25c-.204.52-.016.031-.032.093-.172.448-.273.698-.273.698v.011c-.133.333-.281.635-.352.635-.046 0-.148-.875.024-2.073.367-2.52 1.234-6.437 1.226-6.572-.008-.073.164-.75-.57-1.115-.711-.343-.968.229-1.031.229-.062 0-.109.209-.109.209s.789-4.417-1.516-4.417c-1.437 0-3.436 2.104-4.42 4.011-.617.447-1.953 1.416-3.359 2.447-.538.396-1.093.802-1.616 1.188-.039-.052-.071-.104-.11-.157-2.796-3.978-7.958-6.791-7.74-12.134.078-1.948.586-7.062 9.927-13.27 7.654-5.083 13.778-3.687 14.832-.583 1.515 4.427-3.273 12.666-11.223 13.853-3.031.448-4.624-1.114-5.022-1.698-.414-.614-.477-.646-.633-.531-.258.188-.094.729 0 1.052.234.823 1.211 2.281 2.874 3.01 1.461.636 5.014.99 9.31-1.229 4.827-2.479 8.583-9.384 7.482-15.165-1.124-5.875-8.427-7.802-15.339-4.531-4.116 1.948-8.568 5.01-11.77 8.999-3.804 4.75-4.413 8.885-4.163 10.614.89 6.135 7.232 10.134 9.771 13.093-.125.093-.243.177-.352.26-1.273.844-6.108 4.218-7.318 7.781-1.367 4.041.226 6.936 1.273 7.332 3.265 1.208 6.607-.968 8.404-4.541 1.796-3.573 1.577-8.239.75-10.364-.008-.031-.024-.052-.032-.083.328-.26.664-.521 1-.781a66.81 66.81 0 0 1 1.835-1.386c-.312 1.125-.538 2.479-.656 4.438-.14 2.291.571 5.26 1.492 6.426.406.51.898.521 1.203.521 1.078 0 1.562-1.188 2.101-2.604a55.688 55.688 0 0 0 1.25-3.739s-.735 5.437 1.273 5.437c.734 0 1.468-1.261 1.796-1.906v.01s.016-.042.055-.125c.078-.156.117-.25.117-.25v-.031c.297-.677.945-2.229 1.921-4.791 1.265-3.313 2.476-7.448 2.476-7.448s.109 1.011.484 2.688c.219.989.68 2.072 1.047 3.124-.297.542-.477.854-.477.854s0 .011.008.021c-.234.417-.5.865-.773 1.302-1 1.583-2.187 3.396-2.343 3.917-.188.614-.141 1.072.219 1.426.265.271.734.313 1.226.261.898-.083 1.531-.375 1.835-.563a6.059 6.059 0 0 0 1.578-1.104c.976-.958 1.57-2.333 1.515-4.145-.031-1-.273-2-.57-2.937.086-.167.18-.344.265-.521 1.547-3.01 2.742-6.312 2.742-6.312s.109 1.01.484 2.687c.188.844.555 1.771.891 2.677-1.453 1.573-2.351 3.396-2.664 4.593-.578 2.219-.125 3.219.727 3.448.382.104.929-.135 1.335-.365a5.798 5.798 0 0 0 1.687-1.156c.976-.958 1.921-2.302 1.859-4.124-.023-.823-.195-1.646-.422-2.438 1.226-.687 2.82-1.062 4.85-.75 4.351.677 5.202 4.302 5.038 5.812a3.89 3.89 0 0 1-1.382 2.604c-.305.25-.399.344-.375.532.039.27.179.26.437.197.359-.083 2.281-1.229 2.367-4.03.125-3.542-2.429-7.437-6.952-7.406zm-33.529 15.072c-1.437 2.093-3.452 2.885-4.319 2.218-.93-.719-.562-3.802 1.21-6.031 1.078-1.354 2.469-2.604 3.39-3.374.211-.167.516-.417.89-.719.063-.052.094-.073.094-.073.071-.062.149-.115.227-.177.648 3.166.023 5.958-1.492 8.156zm10.497-9.52c-.5 1.635-1.554 5.801-2.195 5.582-.546-.187-.882-3.364-.109-6.489.39-1.572 1.218-3.447 1.71-4.176.789-1.177 1.656-1.552 1.859-1.084.274.615-.953 5.146-1.265 6.167zm8.669 5.52c-.211.146-.406.239-.499.167-.071-.053.085-.25.085-.25s1.086-1.552 1.516-2.261c.25-.416.539-.906.851-1.447 0 .052.008.104.008.166-.008 1.865-1.351 3.125-1.961 3.625zm6.686-2.031c-.156-.146-.133-.636.39-2.156.204-.594.672-1.594 1.484-2.552.094.396.149.771.149 1.125-.008 2.343-1.265 3.218-2.023 3.583z"/></svg>