<?xml version="1.0" standalone="no"?><!-- Generator: Gravit.io --><svg xmlns="http://www.w3.org/2000/svg" xmlns:xlink="http://www.w3.org/1999/xlink" style="isolation:isolate" viewBox="10 13 50 50" width="50" height="50"><path d=" M 56.097 38 C 60.576 32.64 60.73 28.369 58.903 25.5 C 57.685 23.594 54.379 20.546 45.92 21.41 C 43.522 16.407 39.871 13 35 13 C 30.129 13 26.478 16.407 24.08 21.41 C 15.628 20.553 12.313 23.594 11.097 25.5 C 9.269 28.371 9.423 32.638 13.903 38 C 9.424 43.36 9.27 47.631 11.097 50.5 C 14.357 55.611 22.445 54.756 24.08 54.59 C 26.476 59.592 30.129 63 35 63 C 39.871 63 43.524 59.592 45.92 54.59 C 47.554 54.756 55.642 55.611 58.903 50.5 C 60.731 47.629 60.577 43.362 56.097 38 L 56.097 38 Z  M 17.073 47.375 C 16.624 46.671 17.052 44.953 18.742 42.659 C 19.519 43.297 20.327 43.918 21.183 44.532 C 21.374 45.871 21.629 47.177 21.937 48.446 C 19.196 48.533 17.485 48.02 17.073 47.375 L 17.073 47.375 Z  M 21.183 31.469 C 20.328 32.083 19.52 32.704 18.742 33.342 C 17.053 31.047 16.625 29.329 17.073 28.625 C 17.454 28.025 18.903 27.505 21.306 27.505 C 21.497 27.505 21.738 27.534 21.941 27.541 C 21.624 28.84 21.371 30.151 21.183 31.469 L 21.183 31.469 Z  M 35 19.25 C 36.057 19.25 37.478 20.57 38.779 22.889 C 37.53 23.25 36.275 23.67 35 24.145 C 33.725 23.67 32.47 23.25 31.221 22.889 C 32.522 20.57 33.943 19.25 35 19.25 Z  M 35 56.75 C 33.943 56.75 32.522 55.43 31.221 53.111 C 32.47 52.75 33.725 52.33 35 51.855 C 36.275 52.33 37.53 52.75 38.779 53.111 C 37.478 55.43 36.057 56.75 35 56.75 Z  M 41.976 41.386 C 38.996 43.249 36.826 44.25 35 45.046 C 33.175 44.251 31.004 43.248 28.024 41.386 C 27.802 38.672 27.802 37.329 28.024 34.615 C 31.001 32.755 33.173 31.752 35 30.955 C 36.829 31.753 39.002 32.756 41.976 34.615 C 42.196 37.328 42.198 38.671 41.976 41.386 Z  M 52.927 47.375 C 52.517 48.021 50.806 48.529 48.063 48.444 C 48.371 47.175 48.626 45.869 48.817 44.532 C 49.672 43.918 50.48 43.297 51.258 42.659 C 52.947 44.953 53.375 46.671 52.927 47.375 Z  M 51.258 33.341 C 50.481 32.703 49.673 32.082 48.817 31.468 C 48.629 30.15 48.376 28.839 48.059 27.54 C 48.262 27.533 48.502 27.504 48.694 27.504 C 51.096 27.504 52.546 28.025 52.927 28.624 C 53.375 29.329 52.947 31.047 51.258 33.341 L 51.258 33.341 Z  M 35 34.875 C 33.028 34.875 31.429 36.274 31.429 38 C 31.429 39.726 33.028 41.125 35 41.125 C 36.972 41.125 38.571 39.726 38.571 38 C 38.571 36.274 36.972 34.875 35 34.875 Z " fill="rgb(0,0,0)"/></svg>