<?xml version="1.0" standalone="no"?><!-- Generator: Gravit.io --><svg xmlns="http://www.w3.org/2000/svg" xmlns:xlink="http://www.w3.org/1999/xlink" style="isolation:isolate" viewBox="85 17 50 50" width="50" height="50"><path d=" M 85 17 L 89.544 61.174 L 110 67 L 130.456 61.174 L 135 17 L 85 17 Z  M 125.768 25.929 L 125.143 31.208 L 110.13 36.71 L 110.091 36.721 L 124.609 36.721 L 122.943 53.083 L 110.156 56.286 L 97.292 53.027 L 96.458 44.779 L 102.826 44.779 L 103.242 49.054 L 110.091 50.538 L 117.214 48.819 L 117.695 41.944 L 96.042 41.888 L 96.042 41.877 L 96.016 41.888 L 95.547 36.721 L 110.143 31.509 L 110.99 31.208 L 94.987 31.208 L 94.232 25.929 L 125.768 25.929 Z " fill="rgb(0,0,0)"/></svg>