<?xml version="1.0" standalone="no"?><!-- Generator: Gravit.io --><svg xmlns="http://www.w3.org/2000/svg" xmlns:xlink="http://www.w3.org/1999/xlink" style="isolation:isolate" viewBox="158 14 50 50" width="50" height="50"><path d=" M 158.337 35.172 C 158.337 37.996 160.284 41.868 163.325 42.817 L 163.325 42.929 C 161.065 43.855 160.44 48.576 163.445 50.272 L 163.445 50.384 C 160.163 51.388 158 53.319 158 56.656 C 158 62.404 163.865 64 168.998 64 C 175.248 64 179.899 61.913 179.899 55.518 C 179.899 47.65 167.76 50.551 167.76 46.277 C 167.76 44.77 168.625 44.19 170.127 43.9 C 175.115 43.04 178.24 39.435 178.24 34.725 C 178.24 33.911 178.06 33.141 177.76 32.382 C 178.565 32.214 179.346 32.013 180.127 31.768 L 180.127 26.132 C 178.06 26.891 175.837 27.449 173.577 27.449 C 167.111 23.989 158.337 27.594 158.337 35.172 L 158.337 35.172 Z  M 168.877 53.453 C 170.921 53.453 173.829 53.788 173.829 56.243 C 173.829 58.676 171.486 59.179 169.298 59.179 C 167.219 59.179 164.094 58.877 164.094 56.366 C 164.106 53.877 166.75 53.453 168.877 53.453 L 168.877 53.453 Z  M 168.493 39 C 165.849 39 164.731 37.549 164.731 35.228 C 164.731 29.725 172.063 29.781 172.063 35.172 C 172.063 37.438 171.101 39 168.493 39 Z  M 208 44.525 L 208 49.993 C 206.401 50.808 204.334 51.087 202.531 51.087 C 196.101 51.087 195.344 46.377 195.344 41.522 L 195.344 31.734 L 195.404 31.734 L 195.404 31.623 C 194.563 31.623 194.526 31.444 192.519 31.734 L 192.519 26.433 L 195.404 26.433 C 195.404 23.944 195.44 22.973 195.224 21.835 L 202.038 21.835 C 201.798 23.375 201.858 24.904 201.858 26.433 L 207.988 26.433 L 207.988 31.734 C 207.988 31.734 205.668 31.623 201.858 31.623 L 201.858 41.79 C 201.858 43.442 202.255 45.451 204.478 45.451 C 205.656 45.451 207.038 45.138 208 44.525 Z  M 190.452 18.096 C 190.452 20.183 188.709 22.136 186.389 22.136 C 184.01 22.136 182.243 20.217 182.243 18.096 C 182.243 15.942 183.986 14 186.389 14 C 188.769 14 190.452 16.009 190.452 18.096 Z  M 189.707 26.411 C 189.49 28.04 189.514 48.71 189.707 50.719 L 183.036 50.719 C 183.228 48.699 183.252 28.063 183.036 26.411 L 189.707 26.411 Z " fill="rgb(0,0,0)"/></svg>