<?xml version="1.0" standalone="no"?><!-- Generator: Gravit.io --><svg xmlns="http://www.w3.org/2000/svg" xmlns:xlink="http://www.w3.org/1999/xlink" style="isolation:isolate" viewBox="224 10 50 50" width="50" height="50"><path d=" M 240.724 50.26 C 240.724 50.467 240.492 50.632 240.2 50.632 C 239.867 50.663 239.635 50.498 239.635 50.26 C 239.635 50.053 239.867 49.888 240.159 49.888 C 240.462 49.857 240.724 50.022 240.724 50.26 Z  M 237.589 49.795 C 237.518 50.001 237.72 50.239 238.022 50.301 C 238.284 50.405 238.587 50.301 238.647 50.095 C 238.708 49.888 238.516 49.65 238.214 49.557 C 237.952 49.485 237.659 49.588 237.589 49.795 Z  M 242.044 49.619 C 241.752 49.691 241.55 49.888 241.581 50.126 C 241.611 50.332 241.873 50.467 242.175 50.394 C 242.468 50.322 242.669 50.126 242.639 49.919 C 242.609 49.722 242.337 49.588 242.044 49.619 Z  M 248.677 10 C 234.696 10 224 20.887 224 35.227 C 224 46.693 231.036 56.505 241.087 59.958 C 242.377 60.196 242.831 59.379 242.831 58.707 C 242.831 58.066 242.8 54.53 242.8 52.359 C 242.8 52.359 235.744 53.91 234.262 49.278 C 234.262 49.278 233.113 46.269 231.46 45.494 C 231.46 45.494 229.151 43.87 231.621 43.901 C 231.621 43.901 234.131 44.108 235.512 46.569 C 237.72 50.56 241.419 49.412 242.861 48.73 C 243.093 47.076 243.748 45.928 244.474 45.246 C 238.839 44.605 233.153 43.767 233.153 33.821 C 233.153 30.978 233.919 29.551 235.532 27.731 C 235.27 27.059 234.413 24.288 235.794 20.711 C 237.901 20.039 242.75 23.503 242.75 23.503 C 244.766 22.924 246.933 22.624 249.081 22.624 C 251.228 22.624 253.395 22.924 255.411 23.503 C 255.411 23.503 260.26 20.029 262.367 20.711 C 263.748 24.299 262.891 27.059 262.629 27.731 C 264.242 29.561 265.23 30.988 265.23 33.821 C 265.23 43.798 259.292 44.594 253.657 45.246 C 254.585 46.062 255.371 47.613 255.371 50.043 C 255.371 53.527 255.341 57.838 255.341 58.686 C 255.341 59.358 255.804 60.175 257.085 59.937 C 267.165 56.505 274 46.693 274 35.227 C 274 20.887 262.659 10 248.677 10 Z  M 233.798 45.659 C 233.667 45.762 233.698 46 233.869 46.197 C 234.03 46.362 234.262 46.435 234.393 46.3 C 234.524 46.197 234.494 45.959 234.323 45.762 C 234.161 45.597 233.929 45.525 233.798 45.659 Z  M 232.71 44.822 C 232.639 44.956 232.74 45.121 232.942 45.225 C 233.103 45.328 233.304 45.297 233.375 45.152 C 233.446 45.018 233.345 44.853 233.143 44.749 C 232.942 44.687 232.78 44.718 232.71 44.822 Z  M 235.976 48.502 C 235.815 48.637 235.875 48.947 236.107 49.143 C 236.339 49.381 236.631 49.412 236.762 49.247 C 236.893 49.112 236.833 48.802 236.631 48.606 C 236.409 48.368 236.107 48.337 235.976 48.502 Z  M 234.827 46.982 C 234.665 47.086 234.665 47.355 234.827 47.592 C 234.988 47.83 235.26 47.934 235.391 47.83 C 235.552 47.696 235.552 47.427 235.391 47.189 C 235.25 46.951 234.988 46.848 234.827 46.982 Z " fill="rgb(0,0,0)"/></svg>