<?xml version="1.0" standalone="no"?><!-- Generator: Gravit.io --><svg xmlns="http://www.w3.org/2000/svg" xmlns:xlink="http://www.w3.org/1999/xlink" style="isolation:isolate" viewBox="349 12 50 50" width="50" height="50"><path d=" M 349 12 L 349 62 L 399 62 L 399 12 L 349 12 Z  M 376.21 50.996 C 376.21 55.862 373.353 58.083 369.19 58.083 C 365.429 58.083 363.252 56.141 362.136 53.786 L 365.964 51.475 C 366.701 52.781 367.371 53.886 368.989 53.886 C 370.529 53.886 371.511 53.283 371.511 50.929 L 371.511 34.958 L 376.21 34.958 L 376.21 50.996 L 376.21 50.996 Z  M 387.326 58.083 C 382.962 58.083 380.138 56.007 378.766 53.283 L 382.594 51.074 C 383.598 52.714 384.915 53.931 387.225 53.931 C 389.167 53.931 390.417 52.96 390.417 51.609 C 390.417 50.002 389.145 49.433 386.991 48.484 L 385.819 47.982 C 382.426 46.542 380.183 44.723 380.183 40.895 C 380.183 37.368 382.873 34.69 387.058 34.69 C 390.049 34.69 392.192 35.728 393.732 38.451 L 390.071 40.795 C 389.268 39.355 388.397 38.786 387.047 38.786 C 385.674 38.786 384.804 39.656 384.804 40.795 C 384.804 42.201 385.674 42.77 387.694 43.652 L 388.866 44.154 C 392.862 45.862 395.105 47.614 395.105 51.542 C 395.105 55.761 391.779 58.083 387.326 58.083 L 387.326 58.083 Z " fill="rgb(0,0,0)"/></svg>