<?xml version="1.0" standalone="no"?><!-- Generator: Gravit.io --><svg xmlns="http://www.w3.org/2000/svg" xmlns:xlink="http://www.w3.org/1999/xlink" style="isolation:isolate" viewBox="11 77 50 50" width="50" height="50"><path d=" M 35.711 127 C 35.547 127 35.383 126.923 35.234 126.796 L 33.734 125.342 C 33.508 125.138 33.617 125.061 33.695 125.023 C 33.992 124.857 34.055 124.819 34.375 124.513 C 34.406 124.487 34.453 124.5 34.484 124.525 L 35.641 125.648 C 35.68 125.686 35.742 125.686 35.781 125.648 L 40.297 121.388 C 40.336 121.349 40.367 121.273 40.367 121.183 L 40.367 112.675 C 40.367 112.586 40.344 112.51 40.297 112.471 L 35.781 108.224 C 35.742 108.186 35.688 108.186 35.641 108.224 L 31.125 112.471 C 31.078 112.51 31.055 112.599 31.055 112.675 L 31.055 121.183 C 31.055 121.26 31.086 121.337 31.125 121.375 L 32.359 122.536 C 33.031 123.084 33.445 122.434 33.445 121.796 L 33.445 113.39 C 33.445 113.275 33.5 113.173 33.578 113.173 L 34.148 113.173 C 34.219 113.173 34.281 113.262 34.281 113.39 L 34.281 121.796 C 34.281 123.263 33.797 124.092 32.945 124.092 C 32.687 124.092 32.477 124.092 31.906 123.633 L 30.719 122.523 C 30.43 122.242 30.242 121.732 30.242 121.183 L 30.242 112.675 C 30.242 112.127 30.422 111.604 30.719 111.336 L 35.234 107.076 C 35.523 106.808 35.898 106.808 36.18 107.076 L 40.695 111.336 C 40.984 111.617 41.172 112.127 41.172 112.675 L 41.172 121.183 C 41.172 121.732 40.992 122.255 40.695 122.523 L 36.18 126.783 C 36.047 126.923 35.883 127 35.711 127 L 35.711 127 Z  M 39.359 118.607 C 39.359 117.012 38.703 116.591 37.313 116.285 C 35.906 115.979 35.766 115.826 35.766 115.29 C 35.766 114.844 35.883 114.257 36.922 114.257 C 37.852 114.257 38.195 114.589 38.336 115.609 C 38.352 115.711 38.398 115.775 38.461 115.775 L 39.047 115.775 C 39.086 115.775 39.117 115.75 39.141 115.711 C 39.164 115.66 39.18 115.609 39.172 115.545 C 39.078 113.785 38.367 112.969 36.922 112.969 C 35.633 112.969 34.867 113.862 34.867 115.341 C 34.867 116.961 35.633 117.395 36.867 117.599 C 38.344 117.841 38.461 118.186 38.461 118.658 C 38.461 119.487 38.055 119.831 37.102 119.831 C 35.906 119.831 35.641 119.347 35.555 118.377 C 35.547 118.275 35.492 118.199 35.422 118.199 L 34.836 118.199 C 34.766 118.199 34.703 118.288 34.703 118.415 C 34.703 119.653 35.117 121.132 37.094 121.132 C 38.539 121.132 39.359 120.214 39.359 118.607 L 39.359 118.607 Z  M 43.617 112.216 C 43.617 112.994 43.227 113.632 42.75 113.632 C 42.273 113.632 41.883 112.994 41.883 112.216 C 41.883 111.413 42.289 110.8 42.75 110.8 C 43.219 110.788 43.617 111.413 43.617 112.216 Z  M 43.477 112.216 C 43.477 111.553 43.148 111.03 42.742 111.03 C 42.344 111.03 42.016 111.553 42.016 112.216 C 42.016 112.88 42.344 113.415 42.742 113.415 C 43.148 113.403 43.477 112.867 43.477 112.216 Z  M 43.125 113.007 L 42.922 113.007 C 42.914 112.931 42.883 112.522 42.883 112.51 C 42.867 112.42 42.852 112.369 42.781 112.369 L 42.609 112.369 L 42.609 113.007 L 42.422 113.007 L 42.422 111.413 L 42.758 111.413 C 42.875 111.413 43.102 111.413 43.102 111.834 C 43.102 112.127 42.984 112.191 42.914 112.229 C 43.047 112.242 43.055 112.382 43.078 112.586 C 43.086 112.714 43.102 112.931 43.125 113.007 L 43.125 113.007 Z  M 42.906 111.885 C 42.906 111.668 42.813 111.668 42.766 111.668 L 42.609 111.668 L 42.609 112.114 L 42.758 112.114 C 42.883 112.114 42.906 111.974 42.906 111.885 L 42.906 111.885 Z  M 21.727 93.708 C 21.727 93.364 21.617 93.057 21.438 92.892 L 16.648 88.389 C 16.57 88.312 16.477 88.274 16.383 88.261 L 16.336 88.261 C 16.242 88.261 16.156 88.312 16.07 88.389 L 11.289 92.892 C 11.109 93.057 11 93.376 11 93.708 L 11.008 105.826 C 11.008 105.992 11.063 106.145 11.148 106.234 C 11.234 106.323 11.344 106.323 11.438 106.234 L 14.281 103.568 C 14.461 103.389 14.57 103.083 14.57 102.752 L 14.57 97.088 C 14.57 96.757 14.68 96.438 14.859 96.272 L 16.07 95.137 C 16.164 95.047 16.258 95.009 16.359 95.009 C 16.461 95.009 16.563 95.047 16.648 95.137 L 17.859 96.272 C 18.039 96.438 18.148 96.757 18.148 97.088 L 18.148 102.752 C 18.148 103.083 18.258 103.402 18.438 103.568 L 21.281 106.234 C 21.367 106.323 21.484 106.323 21.57 106.234 C 21.656 106.157 21.711 105.992 21.711 105.826 L 21.727 93.708 Z  M 47.914 80.48 L 47.914 102.981 C 47.914 103.313 47.805 103.632 47.625 103.798 L 42.836 108.313 C 42.656 108.479 42.438 108.479 42.258 108.313 L 37.469 103.798 C 37.289 103.632 37.18 103.313 37.18 102.981 L 37.18 93.95 C 37.18 93.619 37.289 93.3 37.469 93.134 L 42.258 88.618 C 42.438 88.453 42.656 88.453 42.836 88.618 L 44.031 89.741 C 44.164 89.869 44.336 89.703 44.336 89.46 L 44.336 77.47 C 44.336 77.113 44.57 76.883 44.766 77.062 L 47.617 79.664 C 47.797 79.817 47.914 80.136 47.914 80.48 L 47.914 80.48 Z  M 44.32 96.922 C 44.32 96.833 44.289 96.757 44.25 96.718 L 42.609 95.162 C 42.563 95.124 42.508 95.124 42.461 95.162 L 40.82 96.718 C 40.773 96.757 40.75 96.833 40.75 96.922 L 40.75 100.022 C 40.75 100.111 40.781 100.188 40.82 100.226 L 42.461 101.769 C 42.508 101.808 42.563 101.808 42.602 101.769 L 44.242 100.226 C 44.289 100.188 44.313 100.111 44.313 100.022 L 44.313 96.922 L 44.32 96.922 Z  M 60.711 96.833 C 60.891 96.667 61 96.348 61 96.017 L 61 93.836 C 61 93.504 60.891 93.185 60.711 93.019 L 55.953 88.504 C 55.773 88.338 55.555 88.338 55.375 88.504 L 50.586 93.019 C 50.406 93.185 50.297 93.504 50.297 93.836 L 50.297 102.866 C 50.297 103.211 50.406 103.517 50.586 103.683 L 55.344 108.109 C 55.516 108.275 55.734 108.275 55.914 108.109 L 58.789 105.494 C 58.984 105.316 58.984 104.856 58.789 104.678 L 53.969 100.162 C 53.875 100.073 53.82 99.92 53.82 99.754 L 53.82 96.922 C 53.82 96.757 53.875 96.603 53.969 96.514 L 55.469 95.098 C 55.555 95.009 55.672 95.009 55.758 95.098 L 57.258 96.514 C 57.344 96.603 57.406 96.757 57.406 96.922 L 57.406 99.142 C 57.406 99.499 57.648 99.729 57.844 99.55 L 60.711 96.833 L 60.711 96.833 Z  M 54.672 97.28 C 54.641 97.318 54.617 97.369 54.617 97.433 L 54.617 99.167 C 54.617 99.231 54.641 99.295 54.672 99.32 L 55.594 100.188 C 55.625 100.226 55.672 100.226 55.703 100.188 L 56.625 99.32 C 56.656 99.282 56.68 99.231 56.68 99.167 L 56.68 97.433 C 56.68 97.369 56.656 97.305 56.625 97.28 L 55.703 96.412 C 55.672 96.374 55.625 96.374 55.594 96.412 L 54.672 97.28 Z  M 34.813 102.828 L 34.813 93.848 C 34.813 93.517 34.688 93.198 34.508 93.032 L 29.734 88.542 C 29.57 88.389 29.344 88.363 29.156 88.542 L 24.383 93.032 C 24.203 93.198 24.078 93.504 24.078 93.848 L 24.078 102.828 C 24.078 103.185 24.227 103.491 24.391 103.645 L 29.172 108.135 C 29.359 108.313 29.578 108.3 29.75 108.135 L 34.516 103.645 C 34.656 103.517 34.758 103.3 34.797 103.045 C 34.805 102.981 34.813 102.905 34.813 102.828 Z  M 29.008 86.896 L 28.945 86.96 L 29.031 86.96 L 29.008 86.896 L 29.008 86.896 Z  M 34.961 103.504 L 34.93 103.415 L 34.93 103.53 L 34.961 103.504 Z " fill="rgb(0,0,0)"/></svg>