<?xml version="1.0" standalone="no"?><!-- Generator: Gravit.io --><svg xmlns="http://www.w3.org/2000/svg" xmlns:xlink="http://www.w3.org/1999/xlink" style="isolation:isolate" viewBox="96 83 50 50" width="50" height="50"><path d=" M 121 111.571 L 118.222 111.571 L 118.222 97.286 L 121 97.286 L 121 111.571 Z  M 146 83 L 146 125.857 L 121 125.857 L 121 133 L 109.889 133 L 109.889 125.857 L 96 125.857 L 96 83 L 146 83 Z  M 109.889 90.143 L 98.778 90.143 L 98.778 118.714 L 104.333 118.714 L 104.333 97.286 L 107.111 97.286 L 107.111 118.714 L 109.889 118.714 L 109.889 90.143 Z  M 123.778 90.143 L 112.667 90.143 L 112.667 125.857 L 118.222 125.857 L 118.222 118.714 L 123.778 118.714 L 123.778 90.143 Z  M 143.222 90.143 L 126.556 90.143 L 126.556 118.714 L 132.111 118.714 L 132.111 97.286 L 134.889 97.286 L 134.889 118.714 L 137.667 118.714 L 137.667 97.286 L 140.444 97.286 L 140.444 118.714 L 143.222 118.714 L 143.222 90.143 Z " fill="rgb(0,0,0)"/></svg>