<?xml version="1.0" standalone="no"?><!-- Generator: Gravit.io --><svg xmlns="http://www.w3.org/2000/svg" xmlns:xlink="http://www.w3.org/1999/xlink" style="isolation:isolate" viewBox="172 87 50 50" width="50" height="50"><path d=" M 215.044 115.739 C 213.295 115.749 211.78 116.312 210.515 117.145 C 210.054 115.906 209.577 114.822 209.499 114.01 C 209.405 113.062 209.304 112.5 209.413 111.375 C 209.523 110.25 210.015 108.656 210.007 108.542 C 209.999 108.427 209.897 107.854 208.89 107.844 C 207.882 107.833 207.016 108.104 206.914 108.458 C 206.812 108.812 206.617 109.614 206.5 110.448 C 206.32 111.666 204.485 116.02 203.446 118.291 C 203.103 117.405 202.814 116.624 202.751 115.999 C 202.657 115.051 202.556 114.489 202.665 113.364 C 202.775 112.239 203.267 110.646 203.259 110.531 C 203.251 110.416 203.149 109.844 202.142 109.833 C 201.134 109.823 200.267 110.094 200.166 110.448 C 200.064 110.802 199.955 111.635 199.752 112.437 C 199.549 113.239 197.104 120.488 196.464 122.374 C 196.136 123.332 195.855 124.103 195.652 124.624 C 195.448 125.144 195.636 124.655 195.62 124.717 C 195.448 125.165 195.347 125.415 195.347 125.415 L 195.347 125.426 C 195.214 125.759 195.066 126.061 194.995 126.061 C 194.949 126.061 194.847 125.186 195.019 123.988 C 195.386 121.468 196.253 117.551 196.245 117.416 C 196.237 117.343 196.409 116.666 195.675 116.301 C 194.964 115.958 194.707 116.53 194.644 116.53 C 194.582 116.53 194.535 116.739 194.535 116.739 C 194.535 116.739 195.324 112.322 193.019 112.322 C 191.582 112.322 189.583 114.426 188.599 116.333 C 187.982 116.78 186.646 117.749 185.24 118.78 C 184.702 119.176 184.147 119.582 183.624 119.968 C 183.585 119.916 183.553 119.864 183.514 119.811 C 180.718 115.833 175.556 113.02 175.774 107.677 C 175.852 105.729 176.36 100.615 185.701 94.407 C 193.355 89.324 199.479 90.72 200.533 93.824 C 202.048 98.251 197.26 106.49 189.31 107.677 C 186.279 108.125 184.686 106.563 184.288 105.979 C 183.874 105.365 183.811 105.333 183.655 105.448 C 183.397 105.636 183.561 106.177 183.655 106.5 C 183.889 107.323 184.866 108.781 186.529 109.51 C 187.99 110.146 191.543 110.5 195.839 108.281 C 200.666 105.802 204.422 98.897 203.321 93.116 C 202.197 87.241 194.894 85.314 187.982 88.585 C 183.866 90.533 179.414 93.595 176.212 97.584 C 172.408 102.334 171.799 106.469 172.049 108.198 C 172.939 114.333 179.281 118.332 181.82 121.291 C 181.695 121.384 181.577 121.468 181.468 121.551 C 180.195 122.395 175.36 125.769 174.15 129.332 C 172.783 133.373 174.376 136.268 175.423 136.664 C 178.688 137.872 182.03 135.696 183.827 132.123 C 185.623 128.55 185.404 123.884 184.577 121.759 C 184.569 121.728 184.553 121.707 184.545 121.676 C 184.873 121.416 185.209 121.155 185.545 120.895 C 186.193 120.384 186.826 119.916 187.38 119.509 C 187.068 120.634 186.842 121.988 186.724 123.947 C 186.584 126.238 187.295 129.207 188.216 130.373 C 188.622 130.883 189.114 130.894 189.419 130.894 C 190.497 130.894 190.981 129.706 191.52 128.29 C 192.184 126.561 192.77 124.551 192.77 124.551 C 192.77 124.551 192.035 129.988 194.043 129.988 C 194.777 129.988 195.511 128.727 195.839 128.082 L 195.839 128.092 C 195.839 128.092 195.855 128.05 195.894 127.967 C 195.972 127.811 196.011 127.717 196.011 127.717 L 196.011 127.686 C 196.308 127.009 196.956 125.457 197.932 122.895 C 199.197 119.582 200.408 115.447 200.408 115.447 C 200.408 115.447 200.517 116.458 200.892 118.135 C 201.111 119.124 201.572 120.207 201.939 121.259 C 201.642 121.801 201.462 122.113 201.462 122.113 C 201.462 122.113 201.462 122.124 201.47 122.134 C 201.236 122.551 200.97 122.999 200.697 123.436 C 199.697 125.019 198.51 126.832 198.354 127.353 C 198.166 127.967 198.213 128.425 198.573 128.779 C 198.838 129.05 199.307 129.092 199.799 129.04 C 200.697 128.957 201.33 128.665 201.634 128.477 C 202.118 128.248 202.681 127.884 203.212 127.373 C 204.188 126.415 204.782 125.04 204.727 123.228 C 204.696 122.228 204.454 121.228 204.157 120.291 C 204.243 120.124 204.337 119.947 204.422 119.77 C 205.969 116.76 207.164 113.458 207.164 113.458 C 207.164 113.458 207.273 114.468 207.648 116.145 C 207.836 116.989 208.203 117.916 208.539 118.822 C 207.086 120.395 206.188 122.218 205.875 123.415 C 205.297 125.634 205.75 126.634 206.602 126.863 C 206.984 126.967 207.531 126.728 207.937 126.498 C 208.445 126.269 209.054 125.905 209.624 125.342 C 210.6 124.384 211.545 123.04 211.483 121.218 C 211.46 120.395 211.288 119.572 211.061 118.78 C 212.287 118.093 213.881 117.718 215.911 118.03 C 220.262 118.707 221.113 122.332 220.949 123.842 C 220.785 125.363 219.871 126.196 219.567 126.446 C 219.262 126.696 219.168 126.79 219.192 126.978 C 219.231 127.248 219.371 127.238 219.629 127.175 C 219.988 127.092 221.91 125.946 221.996 123.145 C 222.121 119.603 219.567 115.708 215.044 115.739 L 215.044 115.739 Z  M 181.515 130.811 C 180.078 132.904 178.063 133.696 177.196 133.029 C 176.266 132.31 176.634 129.227 178.406 126.998 C 179.484 125.644 180.875 124.394 181.796 123.624 C 182.007 123.457 182.312 123.207 182.686 122.905 C 182.749 122.853 182.78 122.832 182.78 122.832 C 182.851 122.77 182.929 122.717 183.007 122.655 C 183.655 125.821 183.03 128.613 181.515 130.811 L 181.515 130.811 Z  M 192.012 121.291 C 191.512 122.926 190.458 127.092 189.817 126.873 C 189.271 126.686 188.935 123.509 189.708 120.384 C 190.098 118.812 190.926 116.937 191.418 116.208 C 192.207 115.031 193.074 114.656 193.277 115.124 C 193.551 115.739 192.324 120.27 192.012 121.291 Z  M 200.681 126.811 C 200.47 126.957 200.275 127.05 200.182 126.978 C 200.111 126.925 200.267 126.728 200.267 126.728 C 200.267 126.728 201.353 125.176 201.783 124.467 C 202.033 124.051 202.322 123.561 202.634 123.02 C 202.634 123.072 202.642 123.124 202.642 123.186 C 202.634 125.051 201.291 126.311 200.681 126.811 L 200.681 126.811 Z  M 207.367 124.78 C 207.211 124.634 207.234 124.144 207.757 122.624 C 207.961 122.03 208.429 121.03 209.241 120.072 C 209.335 120.468 209.39 120.843 209.39 121.197 C 209.382 123.54 208.125 124.415 207.367 124.78 Z " fill="rgb(0,0,0)"/></svg>